<svg xmlns="http://www.w3.org/2000/svg" xmlns:xlink="http://www.w3.org/1999/xlink" width="83" height="27" viewBox="0 0 83 27">
  <defs>
    <clipPath id="clip-logo">
      <rect width="83" height="27"/>
    </clipPath>
  </defs>
  <g id="logo" clip-path="url(#clip-logo)">
    <rect width="83" height="27" fill="#fff"/>
    <path id="Path_395" data-name="Path 395" d="M612.519,179a13.04,13.04,0,0,0-12.184,17.059.6.6,0,0,0,.767.373l2.345-.887a.575.575,0,0,0,.351-.723,9.381,9.381,0,0,1-.427-2.816,9.14,9.14,0,1,1,18.275,0,10.02,10.02,0,0,1-1.194,5.237,8.509,8.509,0,0,1-7.943,4.065c-1.03-.066-2.75-.394-2.75-1.917,0-1.282,1.874-1.7,3.166-1.7h2.41a.538.538,0,0,0,.537-.537v-2.608a.538.538,0,0,0-.537-.537h-2.41a2.006,2.006,0,0,1,0-4.01h2.147a.538.538,0,0,0,.537-.537v-2.608a.538.538,0,0,0-.537-.537h-2.147a5.67,5.67,0,0,0-5.632,5.686,5.727,5.727,0,0,0,1,3.232,5,5,0,0,0-2.224,4.152c0,3.166,2.432,5.369,6.212,5.6.263.011.537.022.8.022a12.1,12.1,0,0,0,10.54-5.895,13.473,13.473,0,0,0,1.7-7.1A12.9,12.9,0,0,0,612.519,179Z" transform="translate(-542.316 -178.505)" fill="#a52339"/>
    <g id="Group_397" data-name="Group 397" transform="translate(0.649 3.495)">
      <g id="Group_393" data-name="Group 393" transform="translate(0 0)">
        <path id="Path_396" data-name="Path 396" d="M514.953,204.9h-2.585a.365.365,0,0,0-.368.368v11.713a.365.365,0,0,0,.368.368h2.585a.365.365,0,0,0,.368-.368v-11.7A.367.367,0,0,0,514.953,204.9Z" transform="translate(-460.972 -204.9)" fill="#161b4e"/>
        <path id="Path_397" data-name="Path 397" d="M87.961,204.9H85.376a.365.365,0,0,0-.368.368v8.339a.376.376,0,0,1-.379.379H76.864a2.884,2.884,0,0,1-2.747-3.255,2.957,2.957,0,0,1,2.963-2.509h4.51a.365.365,0,0,0,.368-.368v-2.574a.365.365,0,0,0-.368-.368H76.983a6.21,6.21,0,0,0-6.2,6.511,6.016,6.016,0,0,0,.725,2.563H68.764a2.894,2.894,0,0,1-2.888-2.888v-4.175a.365.365,0,0,0-.368-.368H62.9a.365.365,0,0,0-.368.368V211.1a2.889,2.889,0,0,1-3.266,2.866A2.948,2.948,0,0,1,56.759,211v-4.077a.365.365,0,0,0-.368-.368H53.806a.365.365,0,0,0-.368.368v4.164a4.965,4.965,0,0,1-5.429,4.932,5.051,5.051,0,0,1-4.478-5.072v-4.023a.365.365,0,0,0-.368-.368h-2.6a.365.365,0,0,0-.368.368v3.958a8.424,8.424,0,0,0,7.96,8.479,8.258,8.258,0,0,0,7.257-3.764,6.045,6.045,0,0,0,3.915,1.72,6.209,6.209,0,0,0,4.878-2,6.189,6.189,0,0,0,4.564,2.012H87.648a.7.7,0,0,0,.692-.692V205.279A.4.4,0,0,0,87.961,204.9Z" transform="translate(-40.2 -204.9)" fill="#161b4e"/>
        <circle id="Ellipse_290" data-name="Ellipse 290" cx="1.86" cy="1.86" r="1.86" transform="translate(6.035 1.935) rotate(-13.286)" fill="#161b4e"/>
      </g>
      <g id="Group_394" data-name="Group 394" transform="translate(24.389 14.482)">
        <circle id="Ellipse_291" data-name="Ellipse 291" cx="1.86" cy="1.86" r="1.86" fill="#161b4e"/>
      </g>
      <g id="Group_395" data-name="Group 395" transform="translate(20.171 14.482)">
        <circle id="Ellipse_292" data-name="Ellipse 292" cx="1.86" cy="1.86" r="1.86" fill="#161b4e"/>
      </g>
      <g id="Group_396" data-name="Group 396" transform="translate(30.651 14.385)">
        <path id="Path_398" data-name="Path 398" d="M329.4,348.611h-.7c-.043,0-.054.022-.054.054v1.4a.381.381,0,0,1-.065.249.3.3,0,0,1-.216.065h-1.871a.3.3,0,0,1-.216-.065.362.362,0,0,1-.065-.249v-1.806c0-.043-.022-.054-.054-.054h-.714c-.043,0-.054.022-.054.054v.249H324.8a2.07,2.07,0,0,0-.443.054.846.846,0,0,0-.379.195,1.05,1.05,0,0,0-.27.368,1.481,1.481,0,0,0-.108.584,1.509,1.509,0,0,0,.087.53,1.058,1.058,0,0,0,.249.357,1.113,1.113,0,0,0,.368.206,1.465,1.465,0,0,0,.443.065,1.234,1.234,0,0,0,.357-.054.746.746,0,0,0,.3-.162.476.476,0,0,0,.216.346.9.9,0,0,0,.454.087H328.8a.682.682,0,0,0,.53-.184.813.813,0,0,0,.162-.562v-1.676C329.451,348.633,329.43,348.611,329.4,348.611Zm-4.045,1.027a.54.54,0,0,1-.13.4.482.482,0,0,1-.357.13.537.537,0,0,1-.335-.1.389.389,0,0,1-.13-.335.5.5,0,0,1,.13-.389.522.522,0,0,1,.357-.108h.465Z" transform="translate(-323.6 -347.086)" fill="#161b4e"/>
        <path id="Path_399" data-name="Path 399" d="M383.006,352h-.714c-.043,0-.054.022-.054.054v2.412a.546.546,0,0,1-.108.379.409.409,0,0,1-.346.119h-.13c-.043,0-.054.022-.054.054v.595c0,.043.022.054.054.054h.27a1.162,1.162,0,0,0,.865-.292,1.257,1.257,0,0,0,.281-.9v-2.444C383.071,352.022,383.049,352,383.006,352Z" transform="translate(-375.327 -350.475)" fill="#161b4e"/>
        <path id="Path_400" data-name="Path 400" d="M411,339.828a1.075,1.075,0,0,0-.433-.3,1.608,1.608,0,0,0-.638-.108,1.4,1.4,0,0,0-.671.141,2.1,2.1,0,0,0-.476.335c-.022.022-.022.054.022.087l.346.422a.057.057,0,0,0,.087-.011,1.09,1.09,0,0,1,.27-.184.668.668,0,0,1,.335-.076.684.684,0,0,1,.281.054.423.423,0,0,1,.184.151.718.718,0,0,1,.1.205.845.845,0,0,1,.032.238,1.521,1.521,0,0,1-.022.249.227.227,0,0,1-.076.151.2.2,0,0,1-.141.076c-.054.011-3.407.022-3.407.022h-.13a.552.552,0,0,1-.324-.087.311.311,0,0,1-.13-.238v-1.4c0-.043-.022-.054-.054-.054h-.541a.767.767,0,0,0-.151.011c-.054,0-.087.022-.087.054v1.244a.931.931,0,0,1-.054.368.242.242,0,0,1-.238.108h-2.488a.3.3,0,0,1-.216-.065.361.361,0,0,1-.065-.249v-2.92c0-.043-.022-.054-.054-.054h-.7c-.043,0-.054.022-.054.054v3.2a.813.813,0,0,0,.162.562.682.682,0,0,0,.53.184h3.169a1.921,1.921,0,0,0,.5-.054.5.5,0,0,0,.281-.238.46.46,0,0,0,.281.238,1.107,1.107,0,0,0,.346.054h3.547a1.687,1.687,0,0,0,.422-.043.622.622,0,0,0,.314-.184.807.807,0,0,0,.195-.357,2.3,2.3,0,0,0,.065-.606,1.817,1.817,0,0,0-.076-.541A1.352,1.352,0,0,0,411,339.828Z" transform="translate(-393.075 -337.989)" fill="#161b4e"/>
        <path id="Path_401" data-name="Path 401" d="M504.341,379.608h-.584a.415.415,0,0,1-.119-.119.335.335,0,0,1-.054-.184.223.223,0,0,1,.076-.184.261.261,0,0,1,.184-.076.374.374,0,0,1,.281.141c.022.022.043.022.054-.011l.173-.184a.048.048,0,0,0,.011-.054.724.724,0,0,0-.216-.173.79.79,0,0,0-.324-.065.74.74,0,0,0-.292.054.433.433,0,0,0-.195.141.59.59,0,0,0-.119.195.77.77,0,0,0-.043.216.839.839,0,0,0,.022.173.542.542,0,0,0,.054.141h-.216c-.022,0-.032.011-.032.043v.27c0,.032.011.043.032.043h1.309c.022,0,.032-.011.032-.043v-.27C504.374,379.619,504.363,379.608,504.341,379.608Z" transform="translate(-483.597 -374.287)" fill="#161b4e"/>
        <path id="Path_402" data-name="Path 402" d="M500.007,337.9h-.714c-.043,0-.054.022-.054.054v2.92a.381.381,0,0,1-.065.249.3.3,0,0,1-.216.065h-.541v-2.4c0-.043-.022-.054-.054-.054h-.714c-.043,0-.054.022-.054.054v2.4h-.941c-.043,0-.054.022-.054.054v.595c0,.043.022.054.054.054h2.736a.682.682,0,0,0,.53-.184.813.813,0,0,0,.162-.562v-3.2A.109.109,0,0,0,500.007,337.9Z" transform="translate(-477.889 -337.9)" fill="#161b4e"/>
        <path id="Path_403" data-name="Path 403" d="M535.957,337.9h-.7c-.043,0-.054.022-.054.054v3.883c0,.043.022.054.054.054h.7c.043,0,.054-.022.054-.054v-3.883C536.022,337.922,536,337.9,535.957,337.9Z" transform="translate(-512.314 -337.9)" fill="#161b4e"/>
        <path id="Path_404" data-name="Path 404" d="M476.646,342.492a.346.346,0,1,0-.346-.346A.342.342,0,0,0,476.646,342.492Z" transform="translate(-459.785 -341.378)" fill="#161b4e"/>
        <circle id="Ellipse_293" data-name="Ellipse 293" cx="0.346" cy="0.346" r="0.346" transform="translate(4.391 4.521)" fill="#161b4e"/>
        <path id="Path_405" data-name="Path 405" d="M371.246,379.7a.346.346,0,1,0,.346.346A.342.342,0,0,0,371.246,379.7Z" transform="translate(-365.784 -375.179)" fill="#161b4e"/>
        <circle id="Ellipse_294" data-name="Ellipse 294" cx="0.346" cy="0.346" r="0.346" transform="translate(12.297 4.521)" fill="#161b4e"/>
        <path id="Path_406" data-name="Path 406" d="M333.742,338.692a.346.346,0,1,0-.346-.346A.342.342,0,0,0,333.742,338.692Z" transform="translate(-332.336 -337.989)" fill="#161b4e"/>
        <circle id="Ellipse_295" data-name="Ellipse 295" cx="0.346" cy="0.346" r="0.346" transform="translate(1.785 0.011)" fill="#161b4e"/>
      </g>
    </g>
  </g>
</svg>
