<svg id="Layer_1" data-name="Layer 1" xmlns="http://www.w3.org/2000/svg" viewBox="0 0 84 27"><defs><style>.cls-1{fill:#a52339;}.cls-2{fill:#161b4e;}</style></defs><title>logo-new-0ูก</title><g id="logo"><path id="Path_395" data-name="Path 395" class="cls-1" d="M71.2.49A13,13,0,0,0,58.39,13.75a12.87,12.87,0,0,0,.63,3.8.6.6,0,0,0,.76.38h0L62.13,17a.58.58,0,0,0,.35-.72,9.59,9.59,0,0,1-.43-2.82,9.14,9.14,0,0,1,18.28-.43v.43a10.07,10.07,0,0,1-1.19,5.24,8.51,8.51,0,0,1-8,4.06c-1-.06-2.75-.39-2.75-1.91,0-1.29,1.88-1.7,3.17-1.7H74a.54.54,0,0,0,.54-.54V16A.54.54,0,0,0,74,15.5H71.61a2,2,0,0,1,0-4h2.15a.53.53,0,0,0,.53-.53V8.35a.54.54,0,0,0-.53-.54H71.61A5.67,5.67,0,0,0,66,13.5a5.73,5.73,0,0,0,1,3.23,5,5,0,0,0-2.23,4.15c0,3.17,2.44,5.37,6.22,5.6l.8,0A12.07,12.07,0,0,0,82.3,20.61,13.55,13.55,0,0,0,84,13.51,12.9,12.9,0,0,0,71.22.5Z"/><g id="Group_397" data-name="Group 397"><g id="Group_393" data-name="Group 393"><path id="Path_396" data-name="Path 396" class="cls-2" d="M54.63,3.49H52a.37.37,0,0,0-.36.37h0V15.58a.36.36,0,0,0,.36.36h2.59a.36.36,0,0,0,.37-.36h0V3.88a.36.36,0,0,0-.35-.38Z"/><path id="Path_397" data-name="Path 397" class="cls-2" d="M48.41,3.49H45.82a.37.37,0,0,0-.36.37h0V12.2a.38.38,0,0,1-.38.38H37.31a2.88,2.88,0,0,1-2.77-3,2.06,2.06,0,0,1,0-.26,3,3,0,0,1,3-2.51H42a.37.37,0,0,0,.37-.36h0V3.87a.36.36,0,0,0-.36-.36H37.43a6.21,6.21,0,0,0-6.21,6.21c0,.1,0,.2,0,.3A6,6,0,0,0,32,12.58H29.21a2.9,2.9,0,0,1-2.89-2.89V5.52A.36.36,0,0,0,26,5.15H23.35a.37.37,0,0,0-.37.36h0V9.7a2.9,2.9,0,0,1-2.89,2.89,2.31,2.31,0,0,1-.37,0,2.94,2.94,0,0,1-2.51-3V5.52a.37.37,0,0,0-.36-.37h-2.6a.36.36,0,0,0-.36.36h0V9.68a5,5,0,0,1-5,5,3.4,3.4,0,0,1-.45,0A5,5,0,0,1,4,9.54v-4a.37.37,0,0,0-.36-.37H1a.37.37,0,0,0-.37.36h0v4A8.43,8.43,0,0,0,8.6,18a8.26,8.26,0,0,0,7.26-3.77,6.08,6.08,0,0,0,3.92,1.72,6.18,6.18,0,0,0,4.87-2,6.21,6.21,0,0,0,4.57,2H48.1a.7.7,0,0,0,.69-.69V3.87A.42.42,0,0,0,48.41,3.49Z"/><circle id="Ellipse_290" data-name="Ellipse 290" class="cls-2" cx="8.92" cy="6.81" r="1.86"/></g><g id="Group_394" data-name="Group 394"><circle id="Ellipse_291" data-name="Ellipse 291" class="cls-2" cx="26.9" cy="19.84" r="1.86"/></g><g id="Group_395" data-name="Group 395"><circle id="Ellipse_292" data-name="Ellipse 292" class="cls-2" cx="22.68" cy="19.84" r="1.86"/></g><g id="Group_396" data-name="Group 396"><path id="Path_398" data-name="Path 398" class="cls-2" d="M37.1,19.4h-.7s0,0,0,.06v1.4a.43.43,0,0,1-.07.25.29.29,0,0,1-.22.06H34.19a.27.27,0,0,1-.21-.06.37.37,0,0,1-.07-.25V19.05s0-.05,0-.05h-.71s-.06,0-.06.05v.25H32.5a1.61,1.61,0,0,0-.44.06.81.81,0,0,0-.38.19,1,1,0,0,0-.27.37,1.43,1.43,0,0,0-.11.58,1.6,1.6,0,0,0,.09.53.9.9,0,0,0,.25.36,1.17,1.17,0,0,0,.36.21,1.74,1.74,0,0,0,.45.06,1.34,1.34,0,0,0,.35-.05.72.72,0,0,0,.3-.16.49.49,0,0,0,.22.34.89.89,0,0,0,.45.09H36.5a.66.66,0,0,0,.53-.19.8.8,0,0,0,.16-.56V19.46S37.13,19.4,37.1,19.4Zm-4.05,1a.49.49,0,0,1-.13.4.45.45,0,0,1-.35.13.52.52,0,0,1-.34-.1.41.41,0,0,1-.13-.33.53.53,0,0,1,.13-.39.52.52,0,0,1,.36-.11h.46Z"/><path id="Path_399" data-name="Path 399" class="cls-2" d="M39,19.4h-.71a.05.05,0,0,0-.06.06v2.41a.57.57,0,0,1-.11.38.4.4,0,0,1-.34.12h-.13c-.05,0-.06,0-.06.05V23s0,.05.06.05h.27a1.13,1.13,0,0,0,.86-.29,1.22,1.22,0,0,0,.28-.9V19.44A.06.06,0,0,0,39,19.4Z"/><path id="Path_400" data-name="Path 400" class="cls-2" d="M49.22,19.72a.94.94,0,0,0-.43-.3,1.54,1.54,0,0,0-.64-.11,1.42,1.42,0,0,0-.67.14,1.94,1.94,0,0,0-.47.34s0,.05,0,.08l.34.43a.06.06,0,0,0,.09,0h0a1.27,1.27,0,0,1,.27-.18.67.67,0,0,1,.34-.07.56.56,0,0,1,.28,0,.38.38,0,0,1,.18.15.54.54,0,0,1,.1.2,1,1,0,0,1,0,.24,1,1,0,0,1,0,.25.21.21,0,0,1-.07.15.22.22,0,0,1-.15.08l-3.4,0h-.13a.49.49,0,0,1-.33-.09.34.34,0,0,1-.13-.23v-1.4c0-.05,0-.06,0-.06h-.69q-.09,0-.09.06V20.7a.92.92,0,0,1-.05.37.25.25,0,0,1-.24.11H40.82a.25.25,0,0,1-.28-.32V17.94s0-.05,0-.05h-.7s-.06,0-.06.05v3.2a.8.8,0,0,0,.16.56.67.67,0,0,0,.53.19h3.17a2.07,2.07,0,0,0,.5-.06.49.49,0,0,0,.28-.23.45.45,0,0,0,.29.23,1,1,0,0,0,.34.06h3.55a2,2,0,0,0,.42,0,.63.63,0,0,0,.31-.19.72.72,0,0,0,.2-.36,2,2,0,0,0,.06-.6,1.64,1.64,0,0,0-.07-.54A1.29,1.29,0,0,0,49.22,19.72Z"/><path id="Path_401" data-name="Path 401" class="cls-2" d="M52,23.2h-.58a.34.34,0,0,1-.12-.12.37.37,0,0,1-.05-.18.23.23,0,0,1,.07-.19.32.32,0,0,1,.19-.07.35.35,0,0,1,.28.14s0,0,.05,0l.18-.19a.07.07,0,0,0,0,0,.72.72,0,0,0-.22-.17.71.71,0,0,0-.32-.07.8.8,0,0,0-.3.06.37.37,0,0,0-.19.14.62.62,0,0,0-.12.19.78.78,0,0,0,0,.22,1,1,0,0,0,0,.17.58.58,0,0,0,.05.14h-.21s0,0,0,.05v.27a0,0,0,0,0,0,0h1.31s0,0,0,0v-.27C52.08,23.21,52.07,23.2,52,23.2Z"/><path id="Path_402" data-name="Path 402" class="cls-2" d="M53.42,17.88H52.7s-.05,0-.05.05v2.92a.42.42,0,0,1-.06.25.31.31,0,0,1-.22.07h-.54v-2.4a.05.05,0,0,0-.06-.06h-.71s-.05,0-.05.06v2.4h-.94s-.06,0-.06,0v.6s0,.05.06.05H52.8a.68.68,0,0,0,.53-.18.82.82,0,0,0,.16-.57v-3.2A.08.08,0,0,0,53.42,17.88Z"/><path id="Path_403" data-name="Path 403" class="cls-2" d="M54.94,17.88h-.7s-.05,0-.05.05v3.89s0,.05.05.05h.7c.05,0,.06,0,.06-.05V17.93S55,17.88,54.94,17.88Z"/><path id="Path_404" data-name="Path 404" class="cls-2" d="M48.16,19a.35.35,0,0,0,.35-.34.35.35,0,1,0-.7,0,.34.34,0,0,0,.34.34Z"/><circle id="Ellipse_293" data-name="Ellipse 293" class="cls-2" cx="36.04" cy="22.75" r="0.35"/><path id="Path_405" data-name="Path 405" class="cls-2" d="M36.76,22.4a.35.35,0,0,0-.34.35.34.34,0,0,0,.34.34.35.35,0,1,0,0-.69Z"/><circle id="Ellipse_294" data-name="Ellipse 294" class="cls-2" cx="43.94" cy="22.75" r="0.35"/><path id="Path_406" data-name="Path 406" class="cls-2" d="M32.71,18.58a.34.34,0,0,0,.34-.34.35.35,0,1,0-.69,0,.34.34,0,0,0,.34.34Z"/><circle id="Ellipse_295" data-name="Ellipse 295" class="cls-2" cx="33.43" cy="18.24" r="0.35"/></g></g></g></svg>