<svg xmlns="http://www.w3.org/2000/svg" xmlns:xlink="http://www.w3.org/1999/xlink" viewBox="0 0 446 409" id="el_IVdcksF9e"><style>@-webkit-keyframes kf_el_-KLS1BloOB_an_tsXtf3bNN{16.67%{opacity: 0;}33.33%{opacity: 1;}66.67%{opacity: 1;}100%{opacity: 0;}0%{opacity: 0;}}@keyframes kf_el_-KLS1BloOB_an_tsXtf3bNN{16.67%{opacity: 0;}33.33%{opacity: 1;}66.67%{opacity: 1;}100%{opacity: 0;}0%{opacity: 0;}}@-webkit-keyframes kf_el_-KLS1BloOB_an_CXInVyoI0{16.67%{-webkit-transform: translate(828.52001953125px, 545.260009765625px) translate(-828.52001953125px, -545.260009765625px) translate(0px, 2px);transform: translate(828.52001953125px, 545.260009765625px) translate(-828.52001953125px, -545.260009765625px) translate(0px, 2px);}33.33%{-webkit-transform: translate(828.52001953125px, 545.260009765625px) translate(-828.52001953125px, -545.260009765625px) translate(0px, 0px);transform: translate(828.52001953125px, 545.260009765625px) translate(-828.52001953125px, -545.260009765625px) translate(0px, 0px);}66.67%{-webkit-transform: translate(828.52001953125px, 545.260009765625px) translate(-828.52001953125px, -545.260009765625px) translate(0px, 0px);transform: translate(828.52001953125px, 545.260009765625px) translate(-828.52001953125px, -545.260009765625px) translate(0px, 0px);}100%{-webkit-transform: translate(828.52001953125px, 545.260009765625px) translate(-828.52001953125px, -545.260009765625px) translate(0px, 2px);transform: translate(828.52001953125px, 545.260009765625px) translate(-828.52001953125px, -545.260009765625px) translate(0px, 2px);}0%{-webkit-transform: translate(828.52001953125px, 545.260009765625px) translate(-828.52001953125px, -545.260009765625px) translate(0px, 2px);transform: translate(828.52001953125px, 545.260009765625px) translate(-828.52001953125px, -545.260009765625px) translate(0px, 2px);}}@keyframes kf_el_-KLS1BloOB_an_CXInVyoI0{16.67%{-webkit-transform: translate(828.52001953125px, 545.260009765625px) translate(-828.52001953125px, -545.260009765625px) translate(0px, 2px);transform: translate(828.52001953125px, 545.260009765625px) translate(-828.52001953125px, -545.260009765625px) translate(0px, 2px);}33.33%{-webkit-transform: translate(828.52001953125px, 545.260009765625px) translate(-828.52001953125px, -545.260009765625px) translate(0px, 0px);transform: translate(828.52001953125px, 545.260009765625px) translate(-828.52001953125px, -545.260009765625px) translate(0px, 0px);}66.67%{-webkit-transform: translate(828.52001953125px, 545.260009765625px) translate(-828.52001953125px, -545.260009765625px) translate(0px, 0px);transform: translate(828.52001953125px, 545.260009765625px) translate(-828.52001953125px, -545.260009765625px) translate(0px, 0px);}100%{-webkit-transform: translate(828.52001953125px, 545.260009765625px) translate(-828.52001953125px, -545.260009765625px) translate(0px, 2px);transform: translate(828.52001953125px, 545.260009765625px) translate(-828.52001953125px, -545.260009765625px) translate(0px, 2px);}0%{-webkit-transform: translate(828.52001953125px, 545.260009765625px) translate(-828.52001953125px, -545.260009765625px) translate(0px, 2px);transform: translate(828.52001953125px, 545.260009765625px) translate(-828.52001953125px, -545.260009765625px) translate(0px, 2px);}}@-webkit-keyframes kf_el_0R4HWZqOpH_an_T3e3gJeEW{0%{opacity: 0;}33.33%{opacity: 1;}66.67%{opacity: 1;}100%{opacity: 0;}}@keyframes kf_el_0R4HWZqOpH_an_T3e3gJeEW{0%{opacity: 0;}33.33%{opacity: 1;}66.67%{opacity: 1;}100%{opacity: 0;}}@-webkit-keyframes kf_el_0R4HWZqOpH_an_CNnADAzxw{0%{-webkit-transform: translate(754.6875610351562px, 370.4699401855469px) translate(-754.6875610351562px, -370.4699401855469px) translate(0px, 10px);transform: translate(754.6875610351562px, 370.4699401855469px) translate(-754.6875610351562px, -370.4699401855469px) translate(0px, 10px);}33.33%{-webkit-transform: translate(754.6875610351562px, 370.4699401855469px) translate(-754.6875610351562px, -370.4699401855469px) translate(0px, 0px);transform: translate(754.6875610351562px, 370.4699401855469px) translate(-754.6875610351562px, -370.4699401855469px) translate(0px, 0px);}66.67%{-webkit-transform: translate(754.6875610351562px, 370.4699401855469px) translate(-754.6875610351562px, -370.4699401855469px) translate(0px, 0px);transform: translate(754.6875610351562px, 370.4699401855469px) translate(-754.6875610351562px, -370.4699401855469px) translate(0px, 0px);}100%{-webkit-transform: translate(754.6875610351562px, 370.4699401855469px) translate(-754.6875610351562px, -370.4699401855469px) translate(0px, 5px);transform: translate(754.6875610351562px, 370.4699401855469px) translate(-754.6875610351562px, -370.4699401855469px) translate(0px, 5px);}}@keyframes kf_el_0R4HWZqOpH_an_CNnADAzxw{0%{-webkit-transform: translate(754.6875610351562px, 370.4699401855469px) translate(-754.6875610351562px, -370.4699401855469px) translate(0px, 10px);transform: translate(754.6875610351562px, 370.4699401855469px) translate(-754.6875610351562px, -370.4699401855469px) translate(0px, 10px);}33.33%{-webkit-transform: translate(754.6875610351562px, 370.4699401855469px) translate(-754.6875610351562px, -370.4699401855469px) translate(0px, 0px);transform: translate(754.6875610351562px, 370.4699401855469px) translate(-754.6875610351562px, -370.4699401855469px) translate(0px, 0px);}66.67%{-webkit-transform: translate(754.6875610351562px, 370.4699401855469px) translate(-754.6875610351562px, -370.4699401855469px) translate(0px, 0px);transform: translate(754.6875610351562px, 370.4699401855469px) translate(-754.6875610351562px, -370.4699401855469px) translate(0px, 0px);}100%{-webkit-transform: translate(754.6875610351562px, 370.4699401855469px) translate(-754.6875610351562px, -370.4699401855469px) translate(0px, 5px);transform: translate(754.6875610351562px, 370.4699401855469px) translate(-754.6875610351562px, -370.4699401855469px) translate(0px, 5px);}}@-webkit-keyframes kf_el_MblvX4Frkj_an_XWICz5XTh{16.67%{opacity: 0;}33.33%{opacity: 1;}66.67%{opacity: 1;}100%{opacity: 0;}0%{opacity: 0;}}@keyframes kf_el_MblvX4Frkj_an_XWICz5XTh{16.67%{opacity: 0;}33.33%{opacity: 1;}66.67%{opacity: 1;}100%{opacity: 0;}0%{opacity: 0;}}@-webkit-keyframes kf_el_MblvX4Frkj_an_4gwlHxoaT{16.67%{-webkit-transform: translate(833.716796875px, 656.7899780273438px) translate(-833.716796875px, -656.7899780273438px) translate(0px, 5px);transform: translate(833.716796875px, 656.7899780273438px) translate(-833.716796875px, -656.7899780273438px) translate(0px, 5px);}33.33%{-webkit-transform: translate(833.716796875px, 656.7899780273438px) translate(-833.716796875px, -656.7899780273438px) translate(0px, 0px);transform: translate(833.716796875px, 656.7899780273438px) translate(-833.716796875px, -656.7899780273438px) translate(0px, 0px);}66.67%{-webkit-transform: translate(833.716796875px, 656.7899780273438px) translate(-833.716796875px, -656.7899780273438px) translate(0px, 0px);transform: translate(833.716796875px, 656.7899780273438px) translate(-833.716796875px, -656.7899780273438px) translate(0px, 0px);}100%{-webkit-transform: translate(833.716796875px, 656.7899780273438px) translate(-833.716796875px, -656.7899780273438px) translate(0px, 5px);transform: translate(833.716796875px, 656.7899780273438px) translate(-833.716796875px, -656.7899780273438px) translate(0px, 5px);}0%{-webkit-transform: translate(833.716796875px, 656.7899780273438px) translate(-833.716796875px, -656.7899780273438px) translate(0px, 5px);transform: translate(833.716796875px, 656.7899780273438px) translate(-833.716796875px, -656.7899780273438px) translate(0px, 5px);}}@keyframes kf_el_MblvX4Frkj_an_4gwlHxoaT{16.67%{-webkit-transform: translate(833.716796875px, 656.7899780273438px) translate(-833.716796875px, -656.7899780273438px) translate(0px, 5px);transform: translate(833.716796875px, 656.7899780273438px) translate(-833.716796875px, -656.7899780273438px) translate(0px, 5px);}33.33%{-webkit-transform: translate(833.716796875px, 656.7899780273438px) translate(-833.716796875px, -656.7899780273438px) translate(0px, 0px);transform: translate(833.716796875px, 656.7899780273438px) translate(-833.716796875px, -656.7899780273438px) translate(0px, 0px);}66.67%{-webkit-transform: translate(833.716796875px, 656.7899780273438px) translate(-833.716796875px, -656.7899780273438px) translate(0px, 0px);transform: translate(833.716796875px, 656.7899780273438px) translate(-833.716796875px, -656.7899780273438px) translate(0px, 0px);}100%{-webkit-transform: translate(833.716796875px, 656.7899780273438px) translate(-833.716796875px, -656.7899780273438px) translate(0px, 5px);transform: translate(833.716796875px, 656.7899780273438px) translate(-833.716796875px, -656.7899780273438px) translate(0px, 5px);}0%{-webkit-transform: translate(833.716796875px, 656.7899780273438px) translate(-833.716796875px, -656.7899780273438px) translate(0px, 5px);transform: translate(833.716796875px, 656.7899780273438px) translate(-833.716796875px, -656.7899780273438px) translate(0px, 5px);}}#el_IVdcksF9e *{-webkit-animation-duration: 3s;animation-duration: 3s;-webkit-animation-iteration-count: infinite;animation-iteration-count: infinite;-webkit-animation-timing-function: cubic-bezier(0, 0, 1, 1);animation-timing-function: cubic-bezier(0, 0, 1, 1);}#el_624sNqtHk_{isolation: isolate;}#el_BbAR05rpV2{fill: #efefef;fill-rule: evenodd;-webkit-transform: translate(-754.63px, -336.11px);transform: translate(-754.63px, -336.11px);}#el_0R4HWZqOpH{fill-rule: evenodd;fill: #fff;-webkit-transform: translate(-754.63px, -336.11px);transform: translate(-754.63px, -336.11px);-webkit-animation-fill-mode: backwards;animation-fill-mode: backwards;opacity: 0;-webkit-animation-name: kf_el_0R4HWZqOpH_an_T3e3gJeEW;animation-name: kf_el_0R4HWZqOpH_an_T3e3gJeEW;-webkit-animation-timing-function: cubic-bezier(0, 0, 1, 1);animation-timing-function: cubic-bezier(0, 0, 1, 1);}#el_NUHxe0cynH{fill-rule: evenodd;fill: #d8d8d8;-webkit-transform: translate(-754.63px, -336.11px);transform: translate(-754.63px, -336.11px);}#el_-KLS1BloOB{fill-rule: evenodd;fill: #fff;-webkit-transform: translate(-754.63px, -336.11px);transform: translate(-754.63px, -336.11px);-webkit-animation-fill-mode: backwards;animation-fill-mode: backwards;opacity: 0;-webkit-animation-name: kf_el_-KLS1BloOB_an_tsXtf3bNN;animation-name: kf_el_-KLS1BloOB_an_tsXtf3bNN;-webkit-animation-timing-function: cubic-bezier(0, 0, 1, 1);animation-timing-function: cubic-bezier(0, 0, 1, 1);}#el_-ZQu8ACDt7{fill-rule: evenodd;opacity: 0.29;mix-blend-mode: soft-light;fill: url(#linear-gradient);-webkit-transform: translate(-754.63px, -336.11px);transform: translate(-754.63px, -336.11px);}#el_MblvX4Frkj{fill: #fff;-webkit-transform: translate(-754.63px, -336.11px);transform: translate(-754.63px, -336.11px);-webkit-animation-fill-mode: backwards;animation-fill-mode: backwards;opacity: 0;-webkit-animation-name: kf_el_MblvX4Frkj_an_XWICz5XTh;animation-name: kf_el_MblvX4Frkj_an_XWICz5XTh;-webkit-animation-timing-function: cubic-bezier(0, 0, 1, 1);animation-timing-function: cubic-bezier(0, 0, 1, 1);}#el_MblvX4Frkj_an_4gwlHxoaT{-webkit-animation-fill-mode: backwards;animation-fill-mode: backwards;-webkit-transform: translate(833.716796875px, 656.7899780273438px) translate(-833.716796875px, -656.7899780273438px) translate(0px, 5px);transform: translate(833.716796875px, 656.7899780273438px) translate(-833.716796875px, -656.7899780273438px) translate(0px, 5px);-webkit-animation-name: kf_el_MblvX4Frkj_an_4gwlHxoaT;animation-name: kf_el_MblvX4Frkj_an_4gwlHxoaT;-webkit-animation-timing-function: cubic-bezier(0, 0, 1, 1);animation-timing-function: cubic-bezier(0, 0, 1, 1);}#el_0R4HWZqOpH_an_CNnADAzxw{-webkit-animation-fill-mode: backwards;animation-fill-mode: backwards;-webkit-transform: translate(754.6875610351562px, 370.4699401855469px) translate(-754.6875610351562px, -370.4699401855469px) translate(0px, 10px);transform: translate(754.6875610351562px, 370.4699401855469px) translate(-754.6875610351562px, -370.4699401855469px) translate(0px, 10px);-webkit-animation-name: kf_el_0R4HWZqOpH_an_CNnADAzxw;animation-name: kf_el_0R4HWZqOpH_an_CNnADAzxw;-webkit-animation-timing-function: cubic-bezier(0, 0, 1, 1);animation-timing-function: cubic-bezier(0, 0, 1, 1);}#el_-KLS1BloOB_an_CXInVyoI0{-webkit-animation-fill-mode: backwards;animation-fill-mode: backwards;-webkit-transform: translate(828.52001953125px, 545.260009765625px) translate(-828.52001953125px, -545.260009765625px) translate(0px, 2px);transform: translate(828.52001953125px, 545.260009765625px) translate(-828.52001953125px, -545.260009765625px) translate(0px, 2px);-webkit-animation-name: kf_el_-KLS1BloOB_an_CXInVyoI0;animation-name: kf_el_-KLS1BloOB_an_CXInVyoI0;-webkit-animation-timing-function: cubic-bezier(0, 0, 1, 1);animation-timing-function: cubic-bezier(0, 0, 1, 1);}</style><defs><linearGradient id="linear-gradient" x1="833.75" y1="398.76" x2="1014.35" y2="576.56" gradientUnits="userSpaceOnUse"><stop offset="0" stop-color="#fff"/><stop offset="1"/></linearGradient></defs><title>Alain Logo2</title><g id="el_624sNqtHk_"><g id="el_MsHFd8uBeS"><path d="M1201.16,336.11H842.36c-48.21,0-87.66,39.84-87.66,88.54V745.16h358.79c48.22,0,87.67-39.84,87.67-88.53Z" id="el_BbAR05rpV2"/><g id="el_0R4HWZqOpH_an_CNnADAzxw" data-animator-group="true" data-animator-type="0"><path d="M1004.28,553.85c18.15-5.11,32.47-1.07,43.57,13.83q-31.06,20.66-46.35,9.37-9.79-7.71-12.9-29c-1.94-13.31-1.59-20.59-6.37-34.15-5.36-15.14-12.34-22.23-18.61,5.12-1.32,5.77-2.73,11.62-6.29,17.32-6.72,10.76-16.15,9-28-18.22q-6.08,14-4.18,25c59.5,76.5-183.13,153.65-161-26.79-61.68,171,199.11,157.6,179.49,41.2,25.05,4.78,23.19-21.81,26.3-31.31.54-1.62,1.21-2.75,2.18-3.13,2.58-1,3.43,4,3.9,5.65,7.26,26.5-3,91.43,54.86,66.72h0c8.63-2.86,18.83-7.74,30.92-15.14q117.76,90.95,82-167.57l.06,0Q1252.08,583.43,1085.48,643c-2.55.91-5.16,1.81-7.81,2.68,2.74-.22,5.5-.07,8.07-.78,76.68-21.34,107.71-56.79,114.18-96.46,3.86-23.66-1-48.81-10.14-73.37-10.48-28.2-44-76-47.62-96.16-.45-2.49-.87-5.29-1.23-8.44-6.57,7.73-9.88,15-10.8,22.37q35.22,252-47.37,177.37l13.68-5.77c8.66-3.66,20.43-6.41,24-16.47q4-11.29-18.6-20.88c-11.27-4.77-22.49-5.85-34.64-6.66-39.16-2.63-60.22,8.43-62.94,33.38Zm57.85,4.22c.15-.11.33.14.5.28l8.22-3.47,8.05-3.39a75.67,75.67,0,0,0,7.72-3.24,38.51,38.51,0,0,0-4.54-2.29c-5.58-2.36-11.59-2.86-17.55-3.26-5-.33-13.47-.51-19.68,1.76,6.06,1.87,11.45,5.79,15.91,11.78Z" id="el_0R4HWZqOpH"/></g><path d="M754.7,564.41V745.16h358.79c48.22,0,87.67-39.84,87.67-88.53V536.25a101.94,101.94,0,0,1-1.24,12.23c-6.47,39.67-37.5,75.12-114.18,96.46-2.57.71-5.33.56-8.07.78,2.65-.87,5.26-1.77,7.81-2.68q166.61-59.61,58.45-230.26l-.06,0q35.72,258.53-82,167.57c-12.09,7.4-22.29,12.28-30.92,15.14-57.88,24.71-47.6-40.22-54.86-66.72-.47-1.69-1.32-6.68-3.9-5.65-1,.38-1.64,1.51-2.18,3.13-3.11,9.5-1.25,36.09-26.3,31.31C961.22,661.63,754.41,683.38,754.7,564.41Z" id="el_NUHxe0cynH"/><g id="el_-KLS1BloOB_an_CXInVyoI0" data-animator-group="true" data-animator-type="0"><path d="M961.39,597.92l-13.15,13.26,16.35,16.54L981,611.2l-13.13-13.28L981,584.67l-16.36-16.55-16.38,16.52ZM844.9,545.26l-16.38,16.52,16.35,16.54,16.38-16.51Z" id="el_-KLS1BloOB"/></g><path d="M842.29,336.11c-48.21,0-87.66,39.84-87.66,88.54V745.16l446.46-409Z" id="el_-ZQu8ACDt7"/><g id="el_MblvX4Frkj_an_4gwlHxoaT" data-animator-group="true" data-animator-type="0"><path d="M879.25,705.73c.25,0,.38.1.38.3v8.52a.34.34,0,0,1-.38.37h-23.2q-10.6,0-16.47-4.95t-5.86-13.8a18.64,18.64,0,0,1,2.69-10,17.57,17.57,0,0,1,7.71-6.75A27.75,27.75,0,0,1,856.05,677h2.13v-3.73h11.51v32.42Zm-21,0v-19.5h-2q-5.24,0-8,2.58c-1.88,1.72-2.82,4.19-2.82,7.43a8.91,8.91,0,0,0,2.76,7q2.77,2.47,8,2.47Zm-7.14-37.24a4.84,4.84,0,0,1-3.73-1.48,5.59,5.59,0,0,1-1.39-4,5.77,5.77,0,0,1,1.37-4.06,4.87,4.87,0,0,1,3.75-1.47,4.79,4.79,0,0,1,3.7,1.45A5.77,5.77,0,0,1,856.2,663a5.62,5.62,0,0,1-1.38,4A4.83,4.83,0,0,1,851.16,668.49Zm13,0a4.84,4.84,0,0,1-3.73-1.48,5.59,5.59,0,0,1-1.39-4,5.77,5.77,0,0,1,1.37-4.06,5.51,5.51,0,0,1,7.49,0,5.85,5.85,0,0,1,1.34,4.06,5.6,5.6,0,0,1-1.4,4A4.81,4.81,0,0,1,864.16,668.49Zm14.31,46.43a.34.34,0,0,1-.38-.37V706c0-.2.13-.3.38-.3h13.37V677h11.39v37.88ZM884.63,734a4.87,4.87,0,0,1-3.73-1.47,5.6,5.6,0,0,1-1.39-4,5.74,5.74,0,0,1,1.37-4,4.87,4.87,0,0,1,3.75-1.47,4.79,4.79,0,0,1,3.7,1.45,5.76,5.76,0,0,1,1.34,4.07,5.63,5.63,0,0,1-1.38,4.06A4.87,4.87,0,0,1,884.63,734Zm13,0a4.87,4.87,0,0,1-3.73-1.47,5.6,5.6,0,0,1-1.39-4,5.74,5.74,0,0,1,1.37-4,5.51,5.51,0,0,1,7.49,0,5.82,5.82,0,0,1,1.34,4,5.6,5.6,0,0,1-1.4,4A4.84,4.84,0,0,1,897.63,734Zm23.12-.74a25.85,25.85,0,0,1-7.19-.94,24.73,24.73,0,0,1-6.89-3.36l4.6-7.43a15.82,15.82,0,0,0,3.56,1.75,12.38,12.38,0,0,0,3.72.49,6,6,0,0,0,4.93-2.34,9.06,9.06,0,0,0,1.87-5.88V677h11.39v39.11q0,7.89-4.35,12.52T920.75,733.3Zm51.11-27.57c.24,0,.37.1.37.3v8.52a.33.33,0,0,1-.37.37h-21V656.79h11.39v48.94Zm30.14,0c.25,0,.38.1.38.3v8.52a.34.34,0,0,1-.38.37H971.11a.33.33,0,0,1-.37-.37V706c0-.2.12-.3.37-.3h9.56V677h11.4v28.69ZM986.13,734a4.93,4.93,0,0,1-3.78-1.47,5.64,5.64,0,0,1-1.38-4,5.74,5.74,0,0,1,1.36-4,4.93,4.93,0,0,1,3.8-1.47,4.81,4.81,0,0,1,3.68,1.45,5.77,5.77,0,0,1,1.36,4.07,5.6,5.6,0,0,1-1.4,4A4.81,4.81,0,0,1,986.13,734Zm15.12-19.12a.33.33,0,0,1-.37-.37V706c0-.2.13-.3.37-.3h30.82v-.08q-3-2.68-4.59-10.87-1.05-5.14-3.08-7.22t-6.11-2.08a18.16,18.16,0,0,0-5,.68,24.26,24.26,0,0,0-5.12,2.2l-3.44-8.41a33.4,33.4,0,0,1,16-3.66q7.65,0,11.92,3.44t5.6,11.32q2,11.4,5.34,14.68v9.19Zm20.21-44.45a4.93,4.93,0,0,1-3.77-1.48,5.64,5.64,0,0,1-1.38-4,5.75,5.75,0,0,1,1.36-4.05,4.91,4.91,0,0,1,3.79-1.47,4.79,4.79,0,0,1,3.68,1.45,5.73,5.73,0,0,1,1.37,4.07,5.6,5.6,0,0,1-1.4,4A4.83,4.83,0,0,1,1021.46,670.47ZM1052,705.73h13.85l-9.86-38.63h11.92l9.11,38.63h.53q3.81,0,5.58-2.11c1.18-1.41,1.78-3.66,1.78-6.74V656.79h11.39v41q0,7.82-4.32,12.48T1080,714.92H1052Zm10.72,27.87,4.37-.71a6.7,6.7,0,0,1-2.51-2.08,5.17,5.17,0,0,1-1-3.12,6.23,6.23,0,0,1,2.28-5.08,9.46,9.46,0,0,1,6.17-1.86,12.87,12.87,0,0,1,6.27,1.38l-1.53,3.88a9.69,9.69,0,0,0-4.15-1,3.44,3.44,0,0,0-3.66,3.7,3.69,3.69,0,0,0,2.28,3.44l1.38-.22q3.74-.6,6.2-.79v4.45q-2.71.18-9,.93c-4.19.5-6.57.82-7.11,1Zm48.11-76.81h11.39v58.13h-11.39Z" id="el_MblvX4Frkj"/></g></g></g></svg>