<?xml version="1.0" encoding="utf-8"?>
<!-- Generator: Adobe Illustrator 23.1.1, SVG Export Plug-In . SVG Version: 6.00 Build 0)  -->
<svg version="1.1" id="Layer_1" xmlns="http://www.w3.org/2000/svg" xmlns:xlink="http://www.w3.org/1999/xlink" x="0px" y="0px"
	 viewBox="0 0 83 27" style="enable-background:new 0 0 83 27;" xml:space="preserve">
<style type="text/css">
	.st0{fill:#E03E52;}
	.st1{fill:#141B4D;}
</style>
<path class="st0" d="M70.21,1C63.48,1,58,6.56,58,13.38c0,1.32,0.2,2.62,0.61,3.86c0.1,0.3,0.43,0.46,0.73,0.35l2.23-0.84
	c0.28-0.1,0.42-0.41,0.34-0.69c-0.27-0.86-0.4-1.76-0.4-2.68c0-4.89,3.91-8.88,8.7-8.88s8.71,3.98,8.71,8.88
	c0,2.08-0.36,3.67-1.14,4.99c-1.51,2.58-4.41,4.06-7.56,3.87c-0.98-0.06-2.62-0.38-2.62-1.83c0-1.22,1.78-1.61,3.01-1.61h2.3
	c0.28,0,0.51-0.23,0.51-0.51V15.8c0-0.28-0.23-0.51-0.51-0.51h-2.3c-1.02,0-1.85-0.86-1.85-1.91c0-1.05,0.83-1.91,1.85-1.91h2.05
	c0.28,0,0.51-0.23,0.51-0.51V8.47c0-0.28-0.23-0.51-0.51-0.51h-2.05c-2.96,0-5.36,2.43-5.36,5.42c0,1.14,0.35,2.21,0.95,3.08
	c-1.36,0.97-2.11,2.36-2.11,3.95c0,3.02,2.32,5.11,5.91,5.33c0.25,0.02,0.51,0.02,0.76,0.02c4.18,0,7.98-2.11,10.04-5.62
	c1.1-1.88,1.62-4.03,1.62-6.77C82.42,6.56,76.94,1,70.21,1"/>
<g>
	<path class="st1" d="M54,3.54h-2.54c-0.2,0-0.36,0.16-0.36,0.36V15.4c0,0.2,0.16,0.36,0.36,0.36H54c0.2,0,0.36-0.16,0.36-0.36V3.91
		C54.36,3.7,54.2,3.54,54,3.54"/>
	<path class="st1" d="M47.88,3.54h-2.54c-0.2,0-0.36,0.16-0.36,0.36v8.18c0,0.2-0.16,0.37-0.37,0.37h-7.63
		c-1.63-0.06-2.91-1.51-2.7-3.2c0.18-1.43,1.47-2.46,2.91-2.46h4.42c0.2,0,0.36-0.16,0.36-0.36V3.91c0-0.2-0.16-0.36-0.36-0.36H37.1
		c-3.46,0-6.25,2.9-6.08,6.4c0.04,0.91,0.3,1.76,0.71,2.52h-2.69v0c-1.56,0-2.84-1.27-2.84-2.84v-4.1c0-0.2-0.16-0.36-0.36-0.36
		h-0.02h-2.52h-0.02c-0.2,0-0.36,0.16-0.36,0.36v4.1c0,1.69-1.48,3.03-3.21,2.81c-1.43-0.18-2.46-1.47-2.46-2.91v-4
		c0-0.2-0.16-0.36-0.36-0.36h-2.54c-0.2,0-0.36,0.16-0.36,0.36v3.92v0.17c0,2.84-2.44,5.11-5.33,4.84
		c-2.52-0.24-4.39-2.45-4.39-4.98V5.52c0-0.2-0.16-0.36-0.36-0.36H1.36C1.16,5.15,1,5.32,1,5.52v3.89c0,4.4,3.41,8.15,7.81,8.32
		c2.98,0.11,5.62-1.39,7.12-3.7c1.01,0.98,2.35,1.61,3.84,1.68c1.89,0.09,3.61-0.69,4.79-1.96c1.12,1.21,2.71,1.97,4.48,1.97v0h8.24
		h5.69h4.6c0.37,0,0.68-0.3,0.68-0.68V3.91C48.25,3.7,48.09,3.54,47.88,3.54"/>
	<path class="st1" d="M9.12,8.62c1.01,0,1.82-0.82,1.82-1.82c0-1.01-0.82-1.82-1.82-1.82C8.12,4.98,7.3,5.79,7.3,6.8
		C7.3,7.81,8.12,8.62,9.12,8.62"/>
	<path class="st1" d="M24.95,19.58c0-1.01,0.82-1.82,1.82-1.82s1.82,0.82,1.82,1.82c0,1.01-0.82,1.82-1.82,1.82
		S24.95,20.58,24.95,19.58"/>
	<path class="st1" d="M20.81,19.58c0-1.01,0.82-1.82,1.82-1.82c1.01,0,1.82,0.82,1.82,1.82c0,1.01-0.82,1.82-1.82,1.82
		C21.63,21.4,20.81,20.58,20.81,19.58"/>
	<path class="st1" d="M36.78,19.16h-0.69c-0.04,0-0.06,0.02-0.06,0.06v1.37c0,0.12-0.02,0.2-0.07,0.24
		c-0.04,0.04-0.11,0.07-0.21,0.07h-1.84c-0.1,0-0.17-0.02-0.21-0.07c-0.04-0.04-0.07-0.12-0.07-0.24v-1.77
		c0-0.04-0.02-0.06-0.06-0.06h-0.71c-0.04,0-0.06,0.02-0.06,0.06v0.25h-0.58c-0.15,0-0.29,0.02-0.43,0.06
		c-0.14,0.04-0.27,0.1-0.38,0.19c-0.11,0.09-0.2,0.21-0.27,0.36c-0.07,0.15-0.1,0.34-0.1,0.57c0,0.2,0.03,0.38,0.09,0.52
		c0.06,0.14,0.14,0.26,0.25,0.35c0.1,0.09,0.22,0.15,0.36,0.2c0.14,0.04,0.28,0.06,0.43,0.06c0.12,0,0.24-0.02,0.35-0.05
		c0.11-0.03,0.21-0.09,0.29-0.16c0.03,0.17,0.11,0.28,0.21,0.34c0.11,0.06,0.25,0.09,0.44,0.09h2.68c0.24,0,0.41-0.06,0.52-0.18
		c0.1-0.12,0.16-0.3,0.16-0.55v-1.65C36.84,19.18,36.82,19.16,36.78,19.16 M32.81,20.16c0,0.18-0.04,0.31-0.13,0.39
		c-0.09,0.08-0.2,0.12-0.35,0.12c-0.13,0-0.25-0.03-0.33-0.1c-0.09-0.06-0.13-0.17-0.13-0.33c0-0.19,0.04-0.31,0.13-0.38
		c0.09-0.07,0.2-0.1,0.35-0.1h0.46V20.16z"/>
	<path class="st1" d="M38.63,19.16h-0.71c-0.04,0-0.06,0.02-0.06,0.06v2.37c0,0.17-0.03,0.29-0.1,0.37
		c-0.07,0.08-0.18,0.12-0.34,0.12h-0.13c-0.04,0-0.06,0.02-0.06,0.06v0.58c0,0.04,0.02,0.06,0.06,0.06h0.27
		c0.38,0,0.66-0.09,0.84-0.28c0.18-0.19,0.28-0.48,0.28-0.88v-2.4C38.69,19.18,38.67,19.16,38.63,19.16"/>
	<path class="st1" d="M48.68,19.46c-0.11-0.12-0.25-0.22-0.42-0.29c-0.17-0.07-0.38-0.11-0.63-0.11c-0.26,0-0.48,0.04-0.65,0.13
		c-0.17,0.09-0.33,0.2-0.46,0.33c-0.02,0.02-0.02,0.05,0.02,0.09l0.34,0.41c0.03,0.02,0.05,0.02,0.08-0.01
		c0.08-0.07,0.17-0.13,0.27-0.18c0.1-0.05,0.21-0.07,0.33-0.07c0.11,0,0.21,0.02,0.28,0.05c0.08,0.04,0.14,0.08,0.18,0.14
		c0.05,0.06,0.08,0.13,0.1,0.2c0.02,0.07,0.03,0.15,0.03,0.23c0,0.1-0.01,0.18-0.02,0.25c-0.01,0.06-0.04,0.11-0.07,0.15
		c-0.03,0.04-0.08,0.06-0.14,0.08c-0.06,0.01-3.35,0.02-3.35,0.02h-0.02h-0.11c-0.14,0-0.24-0.03-0.32-0.08
		c-0.08-0.06-0.12-0.13-0.12-0.23v-1.36c0-0.04-0.02-0.06-0.06-0.06H43.4c-0.04,0-0.09,0-0.15,0.01c-0.06,0-0.08,0.02-0.08,0.05
		v1.21c0,0.17-0.02,0.29-0.05,0.36c-0.03,0.07-0.11,0.1-0.23,0.1h-2.44c-0.1,0-0.17-0.02-0.21-0.07c-0.04-0.04-0.07-0.12-0.07-0.24
		v-2.87c0-0.04-0.02-0.06-0.06-0.06h-0.69c-0.04,0-0.06,0.02-0.06,0.06v3.15c0,0.25,0.05,0.43,0.16,0.55
		c0.1,0.12,0.28,0.18,0.52,0.18h3.11c0.21,0,0.37-0.02,0.49-0.06c0.12-0.04,0.21-0.11,0.27-0.23c0.07,0.12,0.16,0.2,0.27,0.24
		c0.1,0.03,0.21,0.05,0.34,0.05c0.01,0,0.01,0,0.02,0h3.47c0.15,0,0.29-0.02,0.41-0.05c0.12-0.03,0.22-0.09,0.31-0.18
		c0.08-0.09,0.15-0.21,0.19-0.36c0.04-0.15,0.07-0.35,0.07-0.59c0-0.19-0.02-0.36-0.07-0.53C48.87,19.73,48.79,19.59,48.68,19.46"/>
	<path class="st1" d="M51.45,22.88h-0.58c-0.04-0.03-0.08-0.07-0.12-0.12c-0.04-0.05-0.05-0.11-0.05-0.18
		c0-0.08,0.02-0.14,0.07-0.19c0.05-0.05,0.11-0.07,0.18-0.07c0.1,0,0.19,0.04,0.27,0.13c0.02,0.02,0.04,0.02,0.06-0.01l0.17-0.18
		c0.02-0.02,0.02-0.03,0.01-0.05c-0.05-0.07-0.12-0.12-0.21-0.16c-0.09-0.04-0.2-0.07-0.32-0.07c-0.11,0-0.21,0.02-0.29,0.05
		c-0.08,0.03-0.14,0.08-0.19,0.13c-0.05,0.06-0.09,0.12-0.11,0.19c-0.03,0.07-0.04,0.14-0.04,0.21c0,0.06,0.01,0.12,0.02,0.17
		c0.02,0.05,0.03,0.1,0.06,0.14h-0.21c-0.02,0-0.03,0.01-0.03,0.04v0.26c0,0.03,0.01,0.04,0.03,0.04h1.29
		c0.02,0,0.03-0.01,0.03-0.04v-0.26C51.49,22.9,51.48,22.88,51.45,22.88"/>
	<path class="st1" d="M52.8,17.66h-0.71c-0.04,0-0.06,0.02-0.06,0.06v2.87c0,0.12-0.02,0.2-0.07,0.24
		c-0.04,0.04-0.11,0.07-0.21,0.07h-0.53v-2.36c0-0.04-0.02-0.06-0.06-0.06h-0.71c-0.04,0-0.06,0.02-0.06,0.06v2.36h-0.92
		c-0.04,0-0.06,0.02-0.06,0.06v0.58c0,0.04,0.02,0.06,0.06,0.06h2.69c0.24,0,0.42-0.06,0.52-0.18c0.1-0.12,0.16-0.3,0.16-0.55v-3.15
		C52.86,17.68,52.84,17.66,52.8,17.66"/>
	<path class="st1" d="M54.3,17.66h-0.69c-0.04,0-0.06,0.02-0.06,0.06v3.82c0,0.04,0.02,0.06,0.06,0.06h0.69
		c0.04,0,0.06-0.02,0.06-0.06v-3.82C54.36,17.68,54.34,17.66,54.3,17.66"/>
	<path class="st1" d="M47.64,18.75c0.19,0,0.34-0.15,0.34-0.34c0-0.19-0.15-0.34-0.34-0.34c-0.19,0-0.34,0.15-0.34,0.34
		C47.3,18.6,47.45,18.75,47.64,18.75"/>
	<path class="st1" d="M35.74,22.09c-0.19,0-0.34,0.15-0.34,0.34c0,0.19,0.15,0.34,0.34,0.34c0.19,0,0.34-0.15,0.34-0.34
		C36.08,22.24,35.93,22.09,35.74,22.09"/>
	<path class="st1" d="M36.45,22.09c-0.19,0-0.34,0.15-0.34,0.34c0,0.19,0.15,0.34,0.34,0.34c0.19,0,0.34-0.15,0.34-0.34
		C36.79,22.24,36.64,22.09,36.45,22.09"/>
	<path class="st1" d="M43.5,22.09c-0.19,0-0.34,0.15-0.34,0.34c0,0.19,0.15,0.34,0.34,0.34c0.19,0,0.34-0.15,0.34-0.34
		C43.84,22.24,43.69,22.09,43.5,22.09"/>
	<path class="st1" d="M32.47,18.34c0.19,0,0.34-0.15,0.34-0.34s-0.15-0.34-0.34-0.34c-0.19,0-0.34,0.15-0.34,0.34
		S32.28,18.34,32.47,18.34"/>
	<path class="st1" d="M33.18,18.34c0.19,0,0.34-0.15,0.34-0.34s-0.15-0.34-0.34-0.34c-0.19,0-0.34,0.15-0.34,0.34
		S32.99,18.34,33.18,18.34"/>
</g>
</svg>
