<?xml version="1.0" encoding="UTF-8"?>
<svg width="85px" height="27px" viewBox="0 0 85 27" version="1.1" xmlns="http://www.w3.org/2000/svg" xmlns:xlink="http://www.w3.org/1999/xlink">
    <title>French</title>
    <g id="French" stroke="none" stroke-width="1" fill="none" fill-rule="evenodd">
        <g id="Group-2" transform="translate(4.000000, 0.000000)">
            <path d="M76.6197042,13.3803856 C76.615575,6.00175718 70.6171802,-9.31019967e-14 63.2445097,-9.31019967e-14 C55.8717801,-9.31019967e-14 49.8734443,6.00175718 49.8692561,13.3803856 C49.8692561,13.3779081 49.8692561,13.3754895 49.8692561,13.373071 C49.8692561,14.6828123 50.0583171,15.9481347 50.4093039,17.1440855 C50.5484599,17.5756518 50.6730455,17.7732663 50.7596419,17.8609835 C50.9206239,17.9761308 51.1338706,18.0145329 51.3349064,17.9398523 L53.7817272,17.0312978 C54.0861124,16.9182151 54.2472124,16.591178 54.1508238,16.2845511 C53.8578235,15.3519289 53.7094652,14.3800788 53.7094652,13.3877003 C53.7094652,8.09570344 57.9868446,3.79030406 63.2445097,3.79030406 C68.5021747,3.79030406 72.7794951,8.09570344 72.7794951,13.3877003 C72.7794951,15.6417438 72.3843842,17.3563883 71.5360579,18.7838135 C69.8807567,21.5694693 66.7064198,23.1712081 63.2512934,22.9649222 C62.1802821,22.9008597 60.3835244,22.5590162 60.3835244,20.9893087 C60.3835244,19.6727835 62.3356602,19.2444026 63.6827418,19.2444026 L66.1985212,19.2444026 C66.5065638,19.2444026 66.7563248,18.997886 66.7563248,18.6938547 L66.7563248,16.0047055 C66.7563248,15.7006152 66.5065638,15.4540985 66.1985212,15.4540985 L63.6827418,15.4540985 C62.5634182,15.4540985 61.65274,14.5264314 61.65274,13.3862846 C61.65274,12.2460787 62.5634182,11.3184116 63.6827418,11.3184116 L65.927347,11.3184116 C66.2354485,11.3184116 66.4851506,11.071895 66.4851506,10.7678047 L66.4851506,8.0787145 C66.4851506,7.77462421 66.2354485,7.52810756 65.927347,7.52810756 L63.6827418,7.52810756 C60.4459352,7.52810756 57.81259,10.1560258 57.81259,13.3862846 C57.81259,14.6230561 58.1996193,15.7708126 58.8577639,16.7172973 C57.3653324,17.7619993 56.5433153,19.2735434 56.5433153,20.9893087 C56.5433153,23.2014697 57.7137827,24.950387 59.6923458,25.9217062 C59.7317507,25.9404649 59.7712146,25.9590465 59.8109144,25.9770383 C59.8871877,26.0126679 59.9670593,26.0446991 60.0456332,26.0780871 C61.2761518,26.5826823 62.553213,26.7162933 63.3153559,26.7464958 C70.6695038,26.7081527 76.6197042,20.7362442 76.6197042,13.373071 C76.6197042,13.3754895 76.6197042,13.3779081 76.6197042,13.3803856" id="Fill-1" fill="#A5243A"></path>
            <g id="Group" transform="translate(0.000000, 2.449058)">
                <path d="M6.47606553,10.9149068 C6.47606553,10.9149068 5.45774191,7.61875728 5.36831053,7.30705348 L5.33833423,7.30705348 C5.27838162,7.59649273 4.23045484,10.9149068 4.23045484,10.9149068 L6.47606553,10.9149068 Z M0.0147418156,14.2458835 L3.76078463,4.91765605 C3.79138285,4.84178242 3.8648932,4.79202922 3.9468616,4.79202922 L6.80456103,4.79202922 C6.88640505,4.79202922 6.96016417,4.8419068 6.99051362,4.91790482 L10.7365564,14.2830741 C10.7824538,14.3978796 10.6978733,14.5227601 10.574361,14.5227601 L7.88681752,14.5227601 C7.81293401,14.5227601 7.74701102,14.4762409 7.72225881,14.4065864 L7.20955208,12.9658581 L3.52694459,12.9658581 L3.03488544,14.3870582 C3.00677489,14.4682803 2.93027934,14.5227601 2.84433069,14.5227601 L0.201813848,14.5227601 C0.0590221637,14.5227601 -0.0384941085,14.3784758 0.0147418156,14.2458835 L0.0147418156,14.2458835 Z" id="Fill-3" fill="#212549"></path>
                <path d="M11.5212888,14.4287265 L11.5212888,4.95111508 C11.5212888,4.8631763 11.5925602,4.79202922 11.6803746,4.79202922 L14.2365697,4.79202922 C14.3243841,4.79202922 14.3956555,4.8631763 14.3956555,4.95111508 L14.3956555,12.2209283 C14.3956555,12.2438148 14.4140642,12.2622234 14.4368263,12.2622234 L18.2486677,12.2622234 C18.3364821,12.2622234 18.4077536,12.3333705 18.4077536,12.4211849 L18.4077536,14.3637986 C18.4077536,14.451613 18.3364821,14.5227601 18.2486677,14.5227601 L11.6153223,14.5227601 C11.5634546,14.5227601 11.5212888,14.4805943 11.5212888,14.4287265" id="Fill-6" fill="#212549"></path>
                <path d="M30.4170069,4.79202922 L32.9268071,4.79202922 C33.0274329,4.79202922 33.1090282,4.87362447 33.1090282,4.97425032 L33.1090282,14.340539 C33.1090282,14.4411648 33.0274329,14.5227601 32.9268071,14.5227601 L30.4170069,14.5227601 C30.316381,14.5227601 30.2347858,14.4411648 30.2347858,14.340539 L30.2347858,4.97425032 C30.2347858,4.87362447 30.316381,4.79202922 30.4170069,4.79202922" id="Fill-8" fill="#212549"></path>
                <path d="M37.6676527,9.03611401 L37.6458857,14.3412977 C37.6455125,14.4415504 37.5640416,14.5227725 37.4636646,14.5227725 L35.1051141,14.5227725 C34.9949108,14.5227725 34.9056038,14.4334655 34.9056038,14.3232622 L34.9056038,4.96331705 C34.9056038,4.86878597 34.9823481,4.79204166 35.0770036,4.79204166 L37.5033427,4.79204166 C37.592401,4.79204166 37.6756132,4.83458064 37.7273565,4.90697155 C38.2390682,5.62229818 40.9679068,9.43874178 41.0583333,9.58800138 C41.1582128,9.75268447 41.4176758,10.136406 41.4476521,10.186408 L41.3893164,4.92674845 C41.3884458,4.85261618 41.4483984,4.79204166 41.522655,4.79204166 L43.9491186,4.79204166 C44.0227533,4.79204166 44.0824572,4.85162112 44.0824572,4.92525585 L44.0824572,14.3533629 C44.0824572,14.4468989 44.0065835,14.5227725 43.9130475,14.5227725 L41.565194,14.5227725 C41.5010124,14.5227725 41.440811,14.4911793 41.4042424,14.4383165 L37.6676527,9.03611401 Z" id="Fill-10" fill="#212549"></path>
                <path d="M25.18302,10.9149068 C25.18302,10.9149068 24.1646964,7.61875728 24.075265,7.30705348 L24.0452887,7.30705348 C23.9854605,7.59649273 22.9374093,10.9149068 22.9374093,10.9149068 L25.18302,10.9149068 Z M18.7216963,14.2458835 L22.4678635,4.91765605 C22.4983373,4.84178242 22.5719721,4.79202922 22.6538161,4.79202922 L25.5115155,4.79202922 C25.5933595,4.79202922 25.6671186,4.8419068 25.6974681,4.91790482 L29.4435109,14.2830741 C29.4895326,14.3978796 29.4049522,14.5227601 29.2813155,14.5227601 L26.593772,14.5227601 C26.5198885,14.5227601 26.4539655,14.4762409 26.4292133,14.4065864 L25.9165065,12.9658581 L22.2338991,12.9658581 L21.7418399,14.3870582 C21.7137294,14.4682803 21.6373582,14.5227601 21.5512852,14.5227601 L18.9088927,14.5227601 C18.766101,14.5227601 18.6684604,14.3784758 18.7216963,14.2458835 L18.7216963,14.2458835 Z" id="Fill-12" fill="#212549"></path>
                <polygon id="Fill-14" fill="#212549" points="33.6049805 3.03827867 33.0992392 3.03827867 31.4537765 1.13123851 31.4537765 3.03827867 30.8507677 3.03827867 30.8507677 0.0668931775 31.3561359 0.0668931775 33.001723 2.0269205 33.001723 0.0668931775 33.6049805 0.0668931775"></polygon>
                <polygon id="Fill-16" fill="#212549" points="36.6613569 3.03827867 34.4040542 3.03827867 34.4040542 0.0668931775 36.6525257 0.0668931775 36.6525257 0.612312634 35.007063 0.612312634 35.007063 1.28174194 36.5239137 1.28174194 36.5239137 1.81882774 35.007063 1.81882774 35.007063 2.49285921 36.6613569 2.49285921"></polygon>
                <polygon id="Fill-18" fill="#212549" points="40.4407095 3.03827867 39.7930472 3.03827867 39.216532 1.03359786 38.635539 3.03827867 37.9923545 3.03827867 37.1276439 0.0668931775 37.7572706 0.0668931775 38.325079 2.11572996 38.9238588 0.0668931775 39.5048518 0.0668931775 40.1036316 2.11572996 40.6713156 0.0668931775 41.3055445 0.0668931775"></polygon>
                <path d="M43.6345789,0.230854848 C43.8473982,0.384592237 43.982105,0.592809379 44.0380773,0.856128191 L43.4350685,0.980262425 C43.4144209,0.841326614 43.3493686,0.729879445 43.2399116,0.645299005 C43.1305789,0.561216097 43.0004743,0.518925877 42.8494734,0.518925877 C42.7046915,0.518925877 42.5878959,0.554748181 42.4992108,0.625273342 C42.4105257,0.696420418 42.366121,0.783737284 42.366121,0.887348324 C42.366121,1.0499169 42.4652543,1.15029399 42.6631476,1.18885272 L43.3019787,1.31746474 C43.547262,1.3704519 43.7389362,1.46896323 43.8763794,1.61250121 C44.0136982,1.75554167 44.082482,1.94136987 44.082482,2.16911514 C44.082482,2.45569357 43.974642,2.68331446 43.7589619,2.85197781 C43.5429086,3.02064116 43.257574,3.10472407 42.9027093,3.10472407 C42.5747113,3.10472407 42.294352,3.02860167 42.0622533,2.87660565 C41.830279,2.72423647 41.6964429,2.50594431 41.6608694,2.22197792 L42.2952227,2.09386343 C42.3722158,2.41576663 42.5937419,2.576967 42.9605474,2.576967 C43.128962,2.576967 43.2589422,2.54164223 43.3507368,2.47061953 C43.4425315,2.39947246 43.4883044,2.30929478 43.4883044,2.20021089 C43.4883044,2.11152581 43.4623084,2.04174695 43.4106895,1.9916206 C43.3589461,1.94136987 43.2693904,1.90281114 43.1423953,1.87631756 L42.5125198,1.75653673 C41.9921013,1.64695531 41.7320165,1.3631133 41.7320165,0.90501071 C41.7320165,0.63597028 41.8338862,0.417553732 42.0378743,0.250880511 C42.2418624,0.0835853762 42.5168732,0 42.8629067,0 C43.1644111,0 43.4216352,0.0771174601 43.6345789,0.230854848" id="Fill-20" fill="#212549"></path>
                <polygon id="Fill-22" fill="#044AC8" points="11.5212888 17.2766619 14.7336041 17.2766619 14.7336041 18.1804288 12.8263152 18.1804288 12.8263152 18.9142885 14.4553594 18.9142885 14.4553594 19.7633269 12.8263152 19.7633269 12.8263152 21.4810561 11.5212888 21.4810561"></polygon>
                <path d="M16.7553379,18.9801244 L17.3029962,18.9801244 C17.3623269,18.9801244 17.4768837,18.9612182 17.647164,18.9225351 C17.7331126,18.9053702 17.8035134,18.861463 17.8581176,18.7909379 C17.9123485,18.7202883 17.9395884,18.6390662 17.9395884,18.5470228 C17.9395884,18.4118185 17.8966763,18.3073368 17.8106032,18.2343239 C17.7245302,18.161933 17.5628323,18.1257376 17.3258827,18.1257376 L16.7553379,18.1257376 L16.7553379,18.9801244 Z M15.4503114,21.480969 L15.4503114,17.2766992 L17.6156951,17.2766992 C18.017079,17.2766992 18.3238075,17.3111533 18.5362537,17.3799371 C18.7483267,17.4487209 18.9194777,17.5763379 19.0494579,17.7626636 C19.1794382,17.9489893 19.2446149,18.1762371 19.2446149,18.4437849 C19.2446149,18.6768787 19.1948617,18.8787523 19.0953553,19.0477888 C18.9957245,19.2168253 18.8590276,19.3540197 18.6848914,19.458999 C18.5739417,19.5260414 18.4219457,19.581765 18.2289033,19.6256722 C18.383387,19.6772911 18.4962023,19.7290345 18.5667275,19.7806534 C18.6144906,19.8149831 18.6838963,19.8886178 18.7746959,20.0013088 C18.8654955,20.1146218 18.92607,20.2018142 18.9565438,20.2628863 L19.5857974,21.480969 L18.1179536,21.480969 L17.4235233,20.1964658 C17.335709,20.0296682 17.2569745,19.9217037 17.1881907,19.8719505 C17.0945303,19.807147 16.988556,19.774683 16.8698946,19.774683 L16.7553379,19.774683 L16.7553379,21.480969 L15.4503114,21.480969 Z" id="Fill-24" fill="#044AC8"></path>
                <path d="M22.3169247,19.877896 L21.8529761,18.366767 L21.3937541,19.877896 L22.3169247,19.877896 Z M22.5865871,20.786887 L21.1116534,20.786887 L20.9065459,21.4810685 L19.5802499,21.4810685 L21.160536,17.2766743 L22.5773827,17.2766743 L24.15742,21.4810685 L22.7969187,21.4810685 L22.5865871,20.786887 Z" id="Fill-26" fill="#044AC8"></path>
                <polygon id="Fill-28" fill="#044AC8" points="24.578954 17.2766619 25.7920614 17.2766619 27.3749594 19.6024996 27.3749594 17.2766619 28.5996344 17.2766619 28.5996344 21.4810561 27.3749594 21.4810561 25.8006438 19.1723832 25.8006438 21.4810561 24.578954 21.4810561"></polygon>
                <path d="M30.6703875,21.956933 L30.7563362,21.6186112 C30.936194,21.5748284 31.1043598,21.5528126 31.2610824,21.5528126 C31.5879609,21.5528126 31.813716,21.6079143 31.9379747,21.7189883 C32.0623577,21.829938 32.1243004,21.9610376 32.1243004,22.1116655 C32.1243004,22.2037089 32.0960655,22.2986131 32.03972,22.3958806 C31.9833745,22.4932725 31.8826242,22.5715094 31.7372205,22.6309645 C31.5918168,22.6902952 31.39865,22.7198983 31.1577201,22.7198983 C30.9400498,22.7198983 30.6836965,22.6950217 30.3894063,22.6451441 L30.3894063,22.2926427 C30.5881703,22.3307039 30.7994971,22.3502321 31.0231377,22.3502321 C31.1874476,22.3502321 31.2990192,22.3275943 31.357106,22.2838115 C31.4155661,22.2399043 31.4446717,22.1829369 31.4446717,22.1116655 C31.4446717,22.0565638 31.4206658,22.0085519 31.3729027,21.9687494 C31.3251396,21.9284493 31.2506342,21.9081749 31.1492621,21.9081749 C31.0135602,21.9081749 30.8539768,21.9248422 30.6703875,21.956933 M32.2619924,19.7604536 L33.4005944,20.104497 C33.3239744,20.4237881 33.2035717,20.6907141 33.0392617,20.9042797 C32.8749518,21.1185916 32.6708393,21.2805382 32.4269242,21.3891246 C32.1831336,21.4982085 31.8730467,21.5528126 31.4962906,21.5528126 C31.0394319,21.5528126 30.6659097,21.4863921 30.3763461,21.3534267 C30.0869068,21.2205856 29.8367726,20.9873675 29.626441,20.6527772 C29.4161093,20.3186845 29.3110057,19.8903095 29.3110057,19.3687715 C29.3110057,18.6734706 29.4959632,18.1388724 29.8658783,17.765599 C30.2357933,17.3918281 30.7593213,17.2048805 31.4360893,17.2048805 C31.9655877,17.2048805 32.3821464,17.3123474 32.685019,17.5265349 C32.9878916,17.7401005 33.2130248,18.0693423 33.360543,18.5126433 L32.2133586,18.7677529 C32.1730585,18.6401359 32.1311415,18.5464755 32.0869855,18.4871448 C32.0142214,18.387514 31.9255364,18.3108941 31.8203083,18.2575338 C31.7152047,18.2040491 31.5977872,18.1773068 31.4675582,18.1773068 C31.1731436,18.1773068 30.9475128,18.2954706 30.7907902,18.5321715 C30.6721289,18.7084222 30.6131713,18.9843037 30.6131713,19.3604379 C30.6131713,19.8262522 30.6836965,20.1455434 30.8252443,20.3186845 C30.9667922,20.4913281 31.1654318,20.5774011 31.4219096,20.5774011 C31.6701781,20.5774011 31.8582452,20.5079954 31.9852402,20.3684377 C32.112484,20.2285068 32.2046518,20.0262601 32.2619924,19.7604536" id="Fill-30" fill="#044AC8"></path>
                <path d="M36.3464565,19.877896 L35.8825079,18.366767 L35.4232858,19.877896 L36.3464565,19.877896 Z M36.6161188,20.786887 L35.1411852,20.786887 L34.9360776,21.4810685 L33.6097817,21.4810685 L35.1900677,17.2766743 L36.6069145,17.2766743 L38.1869517,21.4810685 L36.8264505,21.4810685 L36.6161188,20.786887 Z" id="Fill-32" fill="#044AC8"></path>
                <polygon id="Fill-34" fill="#044AC8" points="38.6515222 21.4810934 39.9535635 21.4810934 39.9535635 17.2766992 38.6515222 17.2766992"></polygon>
                <path d="M40.659039,20.0902178 L41.8951572,20.0126028 C41.9218996,20.2136058 41.9765037,20.3662237 42.0587209,20.4717005 C42.192557,20.6414833 42.3836093,20.7269344 42.6321265,20.7269344 C42.8175816,20.7269344 42.9604976,20.6836491 43.0611235,20.5963322 C43.1613762,20.5091398 43.2115025,20.4083895 43.2115025,20.2938328 C43.2115025,20.1846245 43.1637394,20.087357 43.0682133,20.001284 C42.9724384,19.9152109 42.7507879,19.8338645 42.4028886,19.7573689 C41.8329657,19.6292544 41.4268552,19.4589741 41.1838108,19.2471498 C40.9390251,19.0348281 40.816881,18.7641706 40.816881,18.4354264 C40.816881,18.2194975 40.8794456,18.015385 41.0046993,17.8230889 C41.1298286,17.6310415 41.3182689,17.4796674 41.5697713,17.3698372 C41.821025,17.2601314 42.1658146,17.2049054 42.6036428,17.2049054 C43.1409774,17.2049054 43.5503218,17.3051581 43.8324225,17.504544 C44.1145231,17.7044275 44.2821914,18.0224748 44.3359248,18.4580641 L43.1112498,18.5298331 C43.0786615,18.3406465 43.0103752,18.2028302 42.9062666,18.1168815 C42.8019093,18.0308085 42.6579982,17.9881451 42.4746576,17.9881451 C42.3232835,17.9881451 42.2097218,18.0201115 42.1332263,18.0841688 C42.0566064,18.1483504 42.0186695,18.2260898 42.0186695,18.3180088 C42.0186695,18.3844293 42.0501384,18.4448795 42.113325,18.4983642 C42.1743971,18.5540878 42.3198008,18.6057067 42.5490387,18.653221 C43.1168471,18.7754895 43.5235795,18.8994994 43.7692359,19.024753 C44.0148923,19.1497579 44.1937551,19.3052367 44.3055754,19.4910649 C44.4175201,19.6761468 44.4734924,19.8838664 44.4734924,20.1128555 C44.4734924,20.382891 44.3987383,20.6314082 44.2498518,20.858656 C44.1005922,21.0865256 43.8921263,21.2585473 43.6244541,21.3765868 C43.3569062,21.4941287 43.0193308,21.5528375 42.6123496,21.5528375 C41.897023,21.5528375 41.4018542,21.4151455 41.1265947,21.1397616 C40.8512107,20.8646264 40.6954832,20.5144882 40.659039,20.0902178" id="Fill-36" fill="#044AC8"></path>
            </g>
        </g>
    </g>
</svg>